<?xml version="1.0" encoding="UTF-8" standalone="no"?>
<!-- Created with Inkscape (http://www.inkscape.org/) -->

<svg
   width="1920"
   height="1080"
   viewBox="0 0 1920.0001 1080"
   version="1.1"
   id="svg5"
   inkscape:version="1.2.2 (732a01da63, 2022-12-09)"
   xml:space="preserve"
   sodipodi:docname="my-websites-background.svg"
   inkscape:export-filename="my-website-background.png"
   inkscape:export-xdpi="96"
   inkscape:export-ydpi="96"
   xmlns:inkscape="http://www.inkscape.org/namespaces/inkscape"
   xmlns:sodipodi="http://sodipodi.sourceforge.net/DTD/sodipodi-0.dtd"
   xmlns:xlink="http://www.w3.org/1999/xlink"
   xmlns="http://www.w3.org/2000/svg"
   xmlns:svg="http://www.w3.org/2000/svg"><sodipodi:namedview
     id="namedview7"
     pagecolor="#505050"
     bordercolor="#ffffff"
     borderopacity="1"
     inkscape:showpageshadow="0"
     inkscape:pageopacity="0"
     inkscape:pagecheckerboard="1"
     inkscape:deskcolor="#505050"
     inkscape:document-units="px"
     showgrid="false"
     inkscape:lockguides="false"
     showguides="true"
     inkscape:zoom="0.53941149"
     inkscape:cx="769.35699"
     inkscape:cy="689.64048"
     inkscape:window-width="1920"
     inkscape:window-height="1057"
     inkscape:window-x="-8"
     inkscape:window-y="-8"
     inkscape:window-maximized="1"
     inkscape:current-layer="layer1" /><defs
     id="defs2"><linearGradient
       inkscape:collect="always"
       id="linearGradient1301"><stop
         style="stop-color:#ffffff;stop-opacity:1;"
         offset="0"
         id="stop1297" /><stop
         style="stop-color:#ffffff;stop-opacity:0;"
         offset="1"
         id="stop1299" /></linearGradient><inkscape:path-effect
       effect="powerstroke"
       id="path-effect1281"
       is_visible="true"
       lpeversion="1"
       offset_points="0,3.517392"
       not_jump="false"
       sort_points="true"
       interpolator_type="CubicBezierJohan"
       interpolator_beta="0.2"
       start_linecap_type="zerowidth"
       linejoin_type="extrp_arc"
       miter_limit="4"
       scale_width="1"
       end_linecap_type="zerowidth" /><inkscape:path-effect
       effect="powerstroke"
       id="path-effect1275"
       is_visible="true"
       lpeversion="1"
       offset_points="0,3.517392"
       not_jump="false"
       sort_points="true"
       interpolator_type="CubicBezierJohan"
       interpolator_beta="0.2"
       start_linecap_type="zerowidth"
       linejoin_type="extrp_arc"
       miter_limit="4"
       scale_width="1"
       end_linecap_type="zerowidth" /><inkscape:path-effect
       effect="powerstroke"
       id="path-effect1269"
       is_visible="true"
       lpeversion="1"
       offset_points="0,3.517392"
       not_jump="false"
       sort_points="true"
       interpolator_type="CubicBezierJohan"
       interpolator_beta="0.2"
       start_linecap_type="zerowidth"
       linejoin_type="extrp_arc"
       miter_limit="4"
       scale_width="1"
       end_linecap_type="zerowidth" /><inkscape:path-effect
       effect="powerstroke"
       id="path-effect1210"
       is_visible="true"
       lpeversion="1"
       offset_points="0,3.517392"
       not_jump="false"
       sort_points="true"
       interpolator_type="CubicBezierJohan"
       interpolator_beta="0.2"
       start_linecap_type="zerowidth"
       linejoin_type="extrp_arc"
       miter_limit="4"
       scale_width="1"
       end_linecap_type="zerowidth" /><linearGradient
       inkscape:collect="always"
       id="linearGradient1023"><stop
         style="stop-color:#3e3939;stop-opacity:1;"
         offset="0"
         id="stop1019" /><stop
         style="stop-color:#0a0a34;stop-opacity:1;"
         offset="0.32739726"
         id="stop4380" /><stop
         style="stop-color:#08051f;stop-opacity:1;"
         offset="0.66780823"
         id="stop4382" /><stop
         style="stop-color:#070016;stop-opacity:1;"
         offset="0.99726027"
         id="stop1021" /></linearGradient><inkscape:path-effect
       effect="spiro"
       id="path-effect23724"
       is_visible="true"
       lpeversion="1" /><inkscape:path-effect
       effect="spiro"
       id="path-effect23720"
       is_visible="true"
       lpeversion="1" /><inkscape:path-effect
       effect="spiro"
       id="path-effect23716"
       is_visible="true"
       lpeversion="1" /><inkscape:path-effect
       effect="spiro"
       id="path-effect23240"
       is_visible="true"
       lpeversion="1" /><inkscape:path-effect
       effect="spiro"
       id="path-effect23236"
       is_visible="true"
       lpeversion="1" /><inkscape:path-effect
       effect="spiro"
       id="path-effect23232"
       is_visible="true"
       lpeversion="1" /><inkscape:path-effect
       effect="spiro"
       id="path-effect23174"
       is_visible="true"
       lpeversion="1" /><inkscape:path-effect
       effect="skeletal"
       id="path-effect1191"
       is_visible="true"
       lpeversion="1"
       pattern="M 0,18.867925 C 0,8.4528305 8.4528305,0 18.867925,0 29.28302,0 37.735851,8.4528305 37.735851,18.867925 c 0,10.415095 -8.452831,18.867926 -18.867926,18.867926 C 8.4528305,37.735851 0,29.28302 0,18.867925 Z"
       copytype="single_stretched"
       prop_scale="0.42772032"
       scale_y_rel="false"
       spacing="0"
       normal_offset="0"
       tang_offset="0"
       prop_units="false"
       vertical_pattern="false"
       hide_knot="false"
       fuse_tolerance="0" /><inkscape:path-effect
       effect="skeletal"
       id="path-effect1187"
       is_visible="true"
       lpeversion="1"
       pattern="M 0,18.867925 C 0,8.4528305 8.4528305,0 18.867925,0 29.28302,0 37.735851,8.4528305 37.735851,18.867925 c 0,10.415095 -8.452831,18.867926 -18.867926,18.867926 C 8.4528305,37.735851 0,29.28302 0,18.867925 Z"
       copytype="single_stretched"
       prop_scale="0.42772032"
       scale_y_rel="false"
       spacing="0"
       normal_offset="0"
       tang_offset="0"
       prop_units="false"
       vertical_pattern="false"
       hide_knot="false"
       fuse_tolerance="0" /><inkscape:path-effect
       effect="skeletal"
       id="path-effect1179"
       is_visible="true"
       lpeversion="1"
       pattern="M 0,18.867925 C 0,8.4528305 8.4528305,0 18.867925,0 29.28302,0 37.735851,8.4528305 37.735851,18.867925 c 0,10.415095 -8.452831,18.867926 -18.867926,18.867926 C 8.4528305,37.735851 0,29.28302 0,18.867925 Z"
       copytype="single_stretched"
       prop_scale="0.42772032"
       scale_y_rel="false"
       spacing="0"
       normal_offset="0"
       tang_offset="0"
       prop_units="false"
       vertical_pattern="false"
       hide_knot="false"
       fuse_tolerance="0" /><inkscape:path-effect
       effect="skeletal"
       id="path-effect1175"
       is_visible="true"
       lpeversion="1"
       pattern="M 0,18.867925 C 0,8.4528305 8.4528305,0 18.867925,0 29.28302,0 37.735851,8.4528305 37.735851,18.867925 c 0,10.415095 -8.452831,18.867926 -18.867926,18.867926 C 8.4528305,37.735851 0,29.28302 0,18.867925 Z"
       copytype="single_stretched"
       prop_scale="0.42772032"
       scale_y_rel="false"
       spacing="0"
       normal_offset="0"
       tang_offset="0"
       prop_units="false"
       vertical_pattern="false"
       hide_knot="false"
       fuse_tolerance="0" /><inkscape:path-effect
       effect="skeletal"
       id="path-effect1114"
       is_visible="true"
       lpeversion="1"
       pattern="M 0,18.867925 C 0,8.4528305 8.4528305,0 18.867925,0 29.28302,0 37.735851,8.4528305 37.735851,18.867925 c 0,10.415095 -8.452831,18.867926 -18.867926,18.867926 C 8.4528305,37.735851 0,29.28302 0,18.867925 Z"
       copytype="single_stretched"
       prop_scale="0.42772032"
       scale_y_rel="false"
       spacing="0"
       normal_offset="0"
       tang_offset="0"
       prop_units="false"
       vertical_pattern="false"
       hide_knot="false"
       fuse_tolerance="0" /><inkscape:path-effect
       effect="spiro"
       id="path-effect1112"
       is_visible="true"
       lpeversion="1" /><inkscape:path-effect
       effect="spiro"
       id="path-effect1025"
       is_visible="true"
       lpeversion="1" /><inkscape:path-effect
       effect="spiro"
       id="path-effect467"
       is_visible="true"
       lpeversion="1" /><radialGradient
       inkscape:collect="always"
       xlink:href="#linearGradient1023"
       id="radialGradient1074"
       cx="958.92493"
       cy="539.25934"
       fx="958.92493"
       fy="539.25934"
       r="957.60193"
       gradientTransform="matrix(0.78125297,0,0,0.73844012,210.83709,141.78929)"
       gradientUnits="userSpaceOnUse" /><inkscape:path-effect
       effect="fill_between_many"
       method="bsplinespiro"
       linkedpaths="#path1208,0,1"
       id="path-effect1212" /><filter
       inkscape:collect="always"
       style="color-interpolation-filters:sRGB"
       id="filter1293"
       x="-0.021976164"
       y="-0.022854122"
       width="1.0439523"
       height="1.0457082"><feGaussianBlur
         inkscape:collect="always"
         stdDeviation="1.6768803"
         id="feGaussianBlur1295" /></filter><radialGradient
       inkscape:collect="always"
       xlink:href="#linearGradient1301"
       id="radialGradient1303"
       cx="53.387695"
       cy="44.151363"
       fx="53.387695"
       fy="44.151363"
       r="95.589942"
       gradientTransform="matrix(1.3599829,0,0,1.1174797,153.19147,263.62459)"
       gradientUnits="userSpaceOnUse" /><filter
       inkscape:collect="always"
       style="color-interpolation-filters:sRGB"
       id="filter1359"
       x="-1.2165517"
       y="-1.1838927"
       width="3.4331033"
       height="3.3677853"><feGaussianBlur
         inkscape:collect="always"
         stdDeviation="17.032452"
         id="feGaussianBlur1361" /></filter><radialGradient
       inkscape:collect="always"
       xlink:href="#linearGradient1301"
       id="radialGradient4124"
       gradientUnits="userSpaceOnUse"
       gradientTransform="matrix(1.3599829,0,0,1.1174797,946.64879,624.50842)"
       cx="53.387695"
       cy="44.151363"
       fx="53.387695"
       fy="44.151363"
       r="95.589942" /><radialGradient
       inkscape:collect="always"
       xlink:href="#linearGradient1301"
       id="radialGradient4126"
       gradientUnits="userSpaceOnUse"
       gradientTransform="matrix(1.3599829,0,0,1.1174797,783.50804,229.69429)"
       cx="53.387695"
       cy="44.151363"
       fx="53.387695"
       fy="44.151363"
       r="95.589942" /><radialGradient
       inkscape:collect="always"
       xlink:href="#linearGradient1301"
       id="radialGradient4128"
       gradientUnits="userSpaceOnUse"
       gradientTransform="matrix(1.3599829,0,0,1.1174797,1358.2084,379.90874)"
       cx="53.387695"
       cy="44.151363"
       fx="53.387695"
       fy="44.151363"
       r="95.589942" /><radialGradient
       inkscape:collect="always"
       xlink:href="#linearGradient1301"
       id="radialGradient4130"
       gradientUnits="userSpaceOnUse"
       gradientTransform="matrix(1.3599829,0,0,1.1174797,-0.67993236,263.62459)"
       cx="53.387695"
       cy="44.151363"
       fx="53.387695"
       fy="44.151363"
       r="95.589942" /><radialGradient
       inkscape:collect="always"
       xlink:href="#linearGradient1301"
       id="radialGradient4132"
       gradientUnits="userSpaceOnUse"
       gradientTransform="matrix(1.3599829,0,0,1.1174797,329.30933,590.5781)"
       cx="53.387695"
       cy="44.151363"
       fx="53.387695"
       fy="44.151363"
       r="95.589942" /><radialGradient
       inkscape:collect="always"
       xlink:href="#linearGradient1301"
       id="radialGradient4134"
       gradientUnits="userSpaceOnUse"
       gradientTransform="matrix(1.3599829,0,0,1.1174797,255.15444,130.81781)"
       cx="53.387695"
       cy="44.151363"
       fx="53.387695"
       fy="44.151363"
       r="95.589942" /><radialGradient
       inkscape:collect="always"
       xlink:href="#linearGradient1301"
       id="radialGradient4136"
       gradientUnits="userSpaceOnUse"
       gradientTransform="matrix(1.3599829,0,0,1.1174797,76.371288,532.43606)"
       cx="53.387695"
       cy="44.151363"
       fx="53.387695"
       fy="44.151363"
       r="95.589942" /><radialGradient
       inkscape:collect="always"
       xlink:href="#linearGradient1301"
       id="radialGradient4138"
       gradientUnits="userSpaceOnUse"
       gradientTransform="matrix(1.3599829,0,0,1.1174797,1341.5039,175.39876)"
       cx="53.387695"
       cy="44.151363"
       fx="53.387695"
       fy="44.151363"
       r="95.589942" /><radialGradient
       inkscape:collect="always"
       xlink:href="#linearGradient1301"
       id="radialGradient4173"
       gradientUnits="userSpaceOnUse"
       gradientTransform="matrix(1.3599829,0,0,1.1174797,301.50125,52.955177)"
       cx="53.387695"
       cy="44.151363"
       fx="53.387695"
       fy="44.151363"
       r="95.589942" /><filter
       inkscape:collect="always"
       style="color-interpolation-filters:sRGB"
       id="filter4280"
       x="-0.12865848"
       y="-0.13379847"
       width="1.257317"
       height="1.2675969"><feGaussianBlur
         inkscape:collect="always"
         stdDeviation="8.1403426"
         id="feGaussianBlur4282" /></filter><filter
       inkscape:collect="always"
       style="color-interpolation-filters:sRGB"
       id="filter4284"
       x="-0.08235206"
       y="-0.085642082"
       width="1.1647041"
       height="1.1712841"><feGaussianBlur
         inkscape:collect="always"
         stdDeviation="4.6069539"
         id="feGaussianBlur4286" /></filter><filter
       inkscape:collect="always"
       style="color-interpolation-filters:sRGB"
       id="filter4288"
       x="-0.082352053"
       y="-0.085642078"
       width="1.1647041"
       height="1.1712841"><feGaussianBlur
         inkscape:collect="always"
         stdDeviation="4.6069539"
         id="feGaussianBlur4290" /></filter><filter
       inkscape:collect="always"
       style="color-interpolation-filters:sRGB"
       id="filter4292"
       x="-0.067029559"
       y="-0.069707433"
       width="1.1340591"
       height="1.1394148"><feGaussianBlur
         inkscape:collect="always"
         stdDeviation="3.4377777"
         id="feGaussianBlur4294" /></filter></defs><g
     inkscape:label="Layer 1"
     inkscape:groupmode="layer"
     id="layer1"><rect
       style="display:inline;fill:url(#radialGradient1074);fill-opacity:1;stroke:none;stroke-width:6.56004;stroke-dasharray:none;stroke-opacity:1;paint-order:fill markers stroke"
       id="rect3198"
       width="1920"
       height="1080"
       x="1.9234614e-14"
       y="-3.03646e-14"
       ry="0.21837674"
       sodipodi:insensitive="true" /><g
       id="g4338"
       style="display:inline;opacity:0.248447"
       sodipodi:insensitive="true"><g
         id="g4074"
         transform="translate(563.37139,-86.68885)"
         style="opacity:0.63354;filter:url(#filter4288)"><path
           id="path1214"
           style="fill:url(#radialGradient4124);fill-opacity:1;filter:url(#filter1293)"
           d="m 1018.553,585.79882 c 0.07,8.8836 -0.6268,27.33401 -1.3184,44.82227 -0.5632,14.24387 -1.2123,29.78055 -1.4218,39.72656 -9.4296,0.0942 -27.19309,0.84159 -43.30082,1.47852 -17.48826,0.69152 -35.93867,1.38819 -44.82226,1.31836 9.52207,0.0748 26.67855,1.1271 44.78906,2.19922 17.12307,1.01366 33.27922,1.89668 43.33402,2 0.2095,9.94592 0.8586,25.48373 1.4218,39.72851 0.6916,17.48826 1.3882,35.93868 1.3184,44.82227 0.075,-9.52207 1.1271,-26.6766 2.1992,-44.78711 0.9005,-15.21164 1.6984,-29.6616 1.9395,-39.76172 9.4277,-0.0939 27.195,-0.84143 43.3066,-1.47852 17.4883,-0.69152 35.9387,-1.38819 44.8223,-1.31836 -9.5221,-0.0748 -26.6766,-1.1271 -44.7871,-2.19921 -17.127,-1.0139 -33.2876,-1.89508 -43.3418,-1.99805 -0.241,-10.10023 -1.0389,-24.55273 -1.9395,-39.76563 -1.0721,-18.1105 -2.1244,-35.26504 -2.1992,-44.78711 z" /><ellipse
           style="opacity:0.838509;fill:#ffffff;fill-opacity:1;stroke:none;stroke-width:3.851;stroke-opacity:1;paint-order:fill markers stroke;filter:url(#filter1359)"
           id="path1357"
           cx="1019.2551"
           cy="673.84668"
           rx="16.800718"
           ry="17.264185" /></g><g
         id="g4080"
         transform="matrix(0.56594104,0,0,0.56594104,861.73697,421.22111)"
         style="filter:url(#filter4280)"><path
           id="path4076"
           style="fill:url(#radialGradient4126);fill-opacity:1;filter:url(#filter1293)"
           d="m 855.41224,190.9847 c 0.0698,8.88359 -0.62684,27.334 -1.31836,44.82226 -0.56323,14.24387 -1.21231,29.78055 -1.42188,39.72657 -9.42956,0.0942 -27.19305,0.84158 -43.30078,1.47851 -17.48826,0.69152 -35.93867,1.38819 -44.82226,1.31836 9.52207,0.0749 26.67855,1.1271 44.78906,2.19922 17.12307,1.01366 33.27918,1.89669 43.33398,2 0.20952,9.94592 0.85861,25.48373 1.42188,39.72851 0.69152,17.48826 1.38819,35.93868 1.31836,44.82227 0.0748,-9.52207 1.1271,-26.6766 2.19922,-44.78711 0.90051,-15.21163 1.6984,-29.6616 1.93945,-39.76172 9.42776,-0.0939 27.19502,-0.84143 43.30664,-1.47851 17.48826,-0.69152 35.93867,-1.38819 44.82226,-1.31836 -9.52207,-0.0748 -26.6766,-1.1271 -44.7871,-2.19922 -17.12697,-1.0139 -33.28752,-1.89507 -43.3418,-1.99805 -0.24098,-10.10022 -1.03887,-24.55273 -1.93945,-39.76562 -1.07212,-18.11051 -2.12437,-35.26504 -2.19922,-44.78711 z" /><ellipse
           style="opacity:0.838509;fill:#ffffff;fill-opacity:1;stroke:none;stroke-width:3.851;stroke-opacity:1;paint-order:fill markers stroke;filter:url(#filter1359)"
           id="ellipse4078"
           cx="856.11438"
           cy="279.03256"
           rx="16.800718"
           ry="17.264185" /></g><g
         id="g4086"
         transform="matrix(1.0302024,0,0,1.0302024,341.37717,-37.513259)"
         style="opacity:0.5"><path
           id="path4082"
           style="fill:url(#radialGradient4128);fill-opacity:1;filter:url(#filter1293)"
           d="m 1430.1126,341.19914 c 0.07,8.88359 -0.6268,27.33401 -1.3183,44.82227 -0.5633,14.24387 -1.2123,29.78055 -1.4219,39.72656 -9.4296,0.0942 -27.193,0.84159 -43.3008,1.47852 -17.4882,0.69152 -35.9387,1.38819 -44.8222,1.31836 9.522,0.0749 26.6785,1.1271 44.789,2.19921 17.1231,1.01367 33.2792,1.89669 43.334,2 0.2095,9.94593 0.8586,25.48374 1.4219,39.72852 0.6915,17.48826 1.3882,35.93868 1.3183,44.82227 0.075,-9.52207 1.1271,-26.6766 2.1993,-44.78711 0.9005,-15.21164 1.6984,-29.6616 1.9394,-39.76172 9.4278,-0.0939 27.195,-0.84143 43.3067,-1.47852 17.4882,-0.69152 35.9386,-1.38819 44.8222,-1.31836 -9.5221,-0.0749 -26.6766,-1.1271 -44.7871,-2.19922 -17.127,-1.01389 -33.2875,-1.89507 -43.3418,-1.99804 -0.241,-10.10023 -1.0389,-24.55273 -1.9394,-39.76563 -1.0722,-18.11051 -2.1244,-35.26504 -2.1993,-44.78711 z" /><ellipse
           style="opacity:0.838509;fill:#ffffff;fill-opacity:1;stroke:none;stroke-width:3.851;stroke-opacity:1;paint-order:fill markers stroke;filter:url(#filter1359)"
           id="ellipse4084"
           cx="1430.8148"
           cy="429.24698"
           rx="16.800718"
           ry="17.264185" /></g><g
         id="g4092"
         transform="translate(16.225389,208.52821)"
         style="opacity:0.65528;mix-blend-mode:luminosity"><path
           id="path4088"
           style="fill:url(#radialGradient4130);fill-opacity:1;filter:url(#filter1293)"
           d="m 71.22427,224.91499 c 0.06983,8.88359 -0.626839,27.33401 -1.318359,44.82227 -0.563231,14.24387 -1.212311,29.78055 -1.421876,39.72656 -9.429563,0.0942 -27.193049,0.84159 -43.300781,1.47852 -17.4882604,0.69152 -35.938674,1.38819 -44.822265,1.31836 9.52207,0.0749 26.6785536,1.1271 44.789062,2.19922 17.123068,1.01366 33.279177,1.89668 43.333984,2 0.209521,9.94592 0.858609,25.48373 1.421876,39.72851 0.69152,17.48826 1.388191,35.93868 1.318359,44.82227 0.07485,-9.52207 1.1271,-26.6766 2.199219,-44.78711 0.900509,-15.21164 1.698403,-29.6616 1.939453,-39.76172 9.427758,-0.0939 27.195018,-0.84143 43.306638,-1.47852 17.48826,-0.69152 35.93867,-1.38819 44.82226,-1.31836 -9.52207,-0.0748 -26.6766,-1.1271 -44.7871,-2.19922 C 101.57778,310.45188 85.417222,309.5707 75.362942,309.46773 75.121966,299.3675 74.324073,284.915 73.423489,269.7021 72.35137,251.59159 71.29912,234.43706 71.22427,224.91499 Z" /><ellipse
           style="opacity:0.838509;fill:#ffffff;fill-opacity:1;stroke:none;stroke-width:3.851;stroke-opacity:1;paint-order:fill markers stroke;filter:url(#filter1359)"
           id="ellipse4090"
           cx="71.926414"
           cy="312.96283"
           rx="16.800718"
           ry="17.264185" /></g><g
         id="g4098"
         transform="translate(-64.905395,-100.74411)"
         style="filter:url(#filter4284)"><path
           id="path4094"
           style="fill:url(#radialGradient4132);fill-opacity:1;filter:url(#filter1293)"
           d="m 401.21353,551.86851 c 0.0698,8.88359 -0.62684,27.334 -1.31836,44.82226 -0.56323,14.24387 -1.21231,29.78055 -1.42187,39.72657 -9.42957,0.0942 -27.19305,0.84158 -43.30078,1.47851 -17.48826,0.69152 -35.93868,1.38819 -44.82227,1.31836 9.52207,0.0748 26.67856,1.1271 44.78906,2.19922 17.12307,1.01366 33.27918,1.89669 43.33399,2 0.20952,9.94592 0.85861,25.48373 1.42187,39.72851 0.69152,17.48826 1.38819,35.93868 1.31836,44.82227 0.0749,-9.52207 1.1271,-26.6766 2.19922,-44.78711 0.90051,-15.21163 1.6984,-29.6616 1.93945,-39.76172 9.42776,-0.0939 27.19502,-0.84143 43.30665,-1.47851 17.48826,-0.69152 35.93867,-1.38819 44.82226,-1.31836 -9.52207,-0.0748 -26.6766,-1.1271 -44.7871,-2.19922 -17.12697,-1.0139 -33.28753,-1.89507 -43.34181,-1.99805 -0.24097,-10.10022 -1.03886,-24.55273 -1.93945,-39.76562 -1.07212,-18.11051 -2.12437,-35.26504 -2.19922,-44.78711 z" /><ellipse
           style="opacity:0.838509;fill:#ffffff;fill-opacity:1;stroke:none;stroke-width:3.851;stroke-opacity:1;paint-order:fill markers stroke;filter:url(#filter1359)"
           id="ellipse4096"
           cx="401.91568"
           cy="639.91638"
           rx="16.800718"
           ry="17.264185" /></g><g
         id="g4104"
         transform="translate(42.202247,47.920997)"><path
           id="path4100"
           style="opacity:0.624224;fill:url(#radialGradient4134);fill-opacity:1;filter:url(#filter1293)"
           d="m 327.05864,92.108218 c 0.0698,8.883592 -0.62684,27.334002 -1.31836,44.822262 -0.56323,14.24387 -1.21231,29.78055 -1.42188,39.72657 -9.42956,0.0942 -27.19305,0.84158 -43.30078,1.47852 -17.48826,0.69152 -35.93867,1.38819 -44.82226,1.31836 9.52207,0.0748 26.67855,1.1271 44.78906,2.19921 17.12307,1.01367 33.27918,1.89669 43.33398,2 0.20952,9.94593 0.85861,25.48374 1.42188,39.72852 0.69152,17.48826 1.38819,35.93868 1.31836,44.82227 0.0749,-9.52207 1.1271,-26.6766 2.19922,-44.78711 0.90051,-15.21164 1.6984,-29.6616 1.93945,-39.76172 9.42776,-0.0939 27.19502,-0.84143 43.30664,-1.47852 17.48826,-0.69152 35.93867,-1.38819 44.82226,-1.31836 -9.52207,-0.0748 -26.6766,-1.1271 -44.7871,-2.19922 -17.12697,-1.0139 -33.28752,-1.89507 -43.3418,-1.99805 -0.24098,-10.10022 -1.03887,-24.55273 -1.93945,-39.76562 -1.07212,-18.11051 -2.12437,-35.26504 -2.19922,-44.787112 z" /><ellipse
           style="opacity:0.838509;fill:#ffffff;fill-opacity:1;stroke:none;stroke-width:3.851;stroke-opacity:1;paint-order:fill markers stroke;filter:url(#filter1359)"
           id="ellipse4102"
           cx="374.1076"
           cy="102.29343"
           rx="16.800718"
           ry="17.264185" /></g><g
         id="g4110"
         transform="translate(1460.2059,-489.70196)"
         style="filter:url(#filter4292)"><path
           id="path4106"
           style="fill:url(#radialGradient4136);fill-opacity:1;filter:url(#filter1293)"
           d="m 148.27549,493.72647 c 0.0698,8.88359 -0.62684,27.334 -1.31836,44.82227 -0.56323,14.24386 -1.21231,29.78054 -1.42188,39.72656 -9.42956,0.0942 -27.19304,0.84158 -43.30078,1.47851 -17.488256,0.69152 -35.93867,1.38819 -44.822261,1.31836 9.52207,0.0748 26.678554,1.1271 44.789061,2.19922 17.12307,1.01367 33.27918,1.89669 43.33398,2 0.20953,9.94592 0.85861,25.48373 1.42188,39.72852 0.69152,17.48825 1.38819,35.93867 1.31836,44.82226 0.0748,-9.52207 1.1271,-26.6766 2.19922,-44.78711 0.90051,-15.21163 1.6984,-29.6616 1.93945,-39.76172 9.42776,-0.0939 27.19502,-0.84143 43.30664,-1.47851 17.48826,-0.69152 35.93867,-1.38819 44.82226,-1.31836 -9.52207,-0.0748 -26.6766,-1.1271 -44.7871,-2.19922 -17.12696,-1.01389 -33.28752,-1.89507 -43.3418,-1.99805 -0.24097,-10.10022 -1.03887,-24.55272 -1.93945,-39.76562 -1.07212,-18.11051 -2.12437,-35.26504 -2.19922,-44.78711 z" /><ellipse
           style="opacity:0.838509;fill:#ffffff;fill-opacity:1;stroke:none;stroke-width:3.851;stroke-opacity:1;paint-order:fill markers stroke;filter:url(#filter1359)"
           id="ellipse4108"
           cx="148.97763"
           cy="581.77429"
           rx="16.800718"
           ry="17.264185" /></g><g
         id="g4116"
         transform="matrix(0.80169819,0,0,0.80169819,379.71808,190.93458)"><path
           id="path4112"
           style="opacity:0.515528;fill:url(#radialGradient4138);fill-opacity:1;filter:url(#filter1293)"
           d="m 1413.4081,136.68917 c 0.07,8.88359 -0.6268,27.334 -1.3183,44.82227 -0.5633,14.24387 -1.2123,29.78055 -1.4219,39.72656 -9.4296,0.0942 -27.1931,0.84158 -43.3008,1.47851 -17.4882,0.69152 -35.9387,1.3882 -44.8223,1.31836 9.5221,0.0748 26.6786,1.1271 44.7891,2.19922 17.1231,1.01367 33.2792,1.89669 43.334,2 0.2095,9.94592 0.8586,25.48373 1.4219,39.72852 0.6915,17.48825 1.3882,35.93867 1.3183,44.82226 0.075,-9.52207 1.1271,-26.6766 2.1992,-44.78711 0.9006,-15.21163 1.6984,-29.6616 1.9395,-39.76171 9.4278,-0.0939 27.195,-0.84144 43.3066,-1.47852 17.4883,-0.69152 35.9387,-1.38819 44.8223,-1.31836 -9.5221,-0.0748 -26.6766,-1.1271 -44.7871,-2.19922 -17.127,-1.01389 -33.2875,-1.89507 -43.3418,-1.99805 -0.241,-10.10022 -1.0389,-24.55272 -1.9395,-39.76562 -1.0721,-18.11051 -2.1243,-35.26504 -2.1992,-44.78711 z" /><ellipse
           style="opacity:0.515528;fill:#ffffff;fill-opacity:1;stroke:none;stroke-width:3.851;stroke-opacity:1;paint-order:fill markers stroke;filter:url(#filter1359)"
           id="ellipse4114"
           cx="1414.1102"
           cy="224.73701"
           rx="16.800718"
           ry="17.264185" /></g><g
         id="g4122"
         transform="matrix(0.68860583,0,0,0.68860583,123.84599,189.14302)"
         style="opacity:0.381988"><path
           id="path4118"
           style="fill:url(#radialGradient1303);fill-opacity:1;filter:url(#filter1293)"
           d="m 225.09567,224.91499 c 0.0698,8.8836 -0.62684,27.33401 -1.31836,44.82227 -0.56323,14.24387 -1.21231,29.78055 -1.42188,39.72656 -9.42956,0.0942 -27.19305,0.84159 -43.30078,1.47852 -17.48826,0.69152 -35.93867,1.38819 -44.82226,1.31836 9.52207,0.0749 26.67855,1.1271 44.78906,2.19922 17.12307,1.01366 33.27918,1.89668 43.33398,2 0.20952,9.94592 0.85861,25.48373 1.42188,39.72851 0.69152,17.48826 1.38819,35.93868 1.31836,44.82227 0.0748,-9.52207 1.1271,-26.6766 2.19922,-44.78711 0.90051,-15.21164 1.6984,-29.6616 1.93945,-39.76172 9.42776,-0.0939 27.19502,-0.84143 43.30664,-1.47852 17.48826,-0.69152 35.93867,-1.38819 44.82226,-1.31836 -9.52207,-0.0748 -26.6766,-1.1271 -44.7871,-2.19921 -17.12697,-1.0139 -33.28752,-1.89508 -43.3418,-1.99805 -0.24098,-10.10023 -1.03887,-24.55273 -1.93945,-39.76563 -1.07212,-18.1105 -2.12437,-35.26504 -2.19922,-44.78711 z" /><ellipse
           style="opacity:0.838509;fill:#ffffff;fill-opacity:1;stroke:none;stroke-width:3.851;stroke-opacity:1;paint-order:fill markers stroke;filter:url(#filter1359)"
           id="ellipse4120"
           cx="225.79782"
           cy="312.96286"
           rx="16.800718"
           ry="17.264185" /></g><g
         id="g4171"
         transform="matrix(0.58302878,0,0,0.58302878,-137.26366,135.73936)"
         style="opacity:0.515528"><path
           id="path4167"
           style="fill:url(#radialGradient4173);fill-opacity:1;filter:url(#filter1293)"
           d="m 373.40545,14.245583 c 0.0698,8.883591 -0.62684,27.334005 -1.31836,44.822265 -0.56323,14.24387 -1.21231,29.78055 -1.42188,39.726563 -9.42956,0.0942 -27.19305,0.841585 -43.30078,1.478519 -17.48826,0.69152 -35.93867,1.38819 -44.82226,1.31836 9.52207,0.0748 26.67855,1.1271 44.78906,2.19921 17.12307,1.01367 33.27918,1.89669 43.33398,2 0.20952,9.94593 0.85861,25.48374 1.42188,39.72852 0.69152,17.48826 1.38819,35.93868 1.31836,44.82227 0.0749,-9.52207 1.1271,-26.6766 2.19922,-44.78711 0.90051,-15.21164 1.6984,-29.6616 1.93945,-39.76172 9.42776,-0.0939 27.19502,-0.84143 43.30664,-1.47852 17.48826,-0.69152 35.93867,-1.38819 44.82226,-1.31836 -9.52207,-0.0748 -26.6766,-1.1271 -44.7871,-2.19922 -17.12697,-1.013891 -33.28752,-1.895067 -43.3418,-1.998043 -0.24098,-10.100225 -1.03887,-24.552728 -1.93945,-39.765625 -1.07212,-18.110508 -2.12437,-35.265039 -2.19922,-44.787109 z" /><ellipse
           style="opacity:0.838509;fill:#ffffff;fill-opacity:1;stroke:none;stroke-width:3.851;stroke-opacity:1;paint-order:fill markers stroke;filter:url(#filter1359)"
           id="ellipse4169"
           cx="374.1076"
           cy="102.29343"
           rx="16.800718"
           ry="17.264185" /></g></g><g
       id="g20330"
       style="display:inline"
       sodipodi:insensitive="true"><ellipse
         style="fill:#c5c5c5;fill-opacity:0.25;stroke:none;stroke-width:2.31373;stroke-linecap:round;stroke-dasharray:none;stroke-opacity:1;paint-order:fill markers stroke"
         id="path20394"
         cx="949.513"
         cy="509.0174"
         rx="259.10831"
         ry="239.03181" /><ellipse
         style="fill:#c5c5c5;fill-opacity:0.5;stroke:none;stroke-width:2.10416;stroke-linecap:round;stroke-dasharray:none;stroke-opacity:1;paint-order:fill markers stroke"
         id="path20385"
         cx="949.513"
         cy="525.56299"
         rx="200.2357"
         ry="199.22295" /><ellipse
         style="fill:#bcbcbc;fill-opacity:1;stroke:none;stroke-width:2.1;stroke-linecap:round;stroke-dasharray:none;stroke-opacity:1;paint-order:fill markers stroke"
         id="path13416"
         cx="949.513"
         cy="538.95001"
         rx="167.46564"
         ry="162.86572" /><ellipse
         style="fill:#acacac;fill-opacity:1;stroke:none;stroke-width:2.1;stroke-linecap:round;stroke-dasharray:none;stroke-opacity:1;paint-order:fill markers stroke"
         id="path20179"
         cx="949.513"
         cy="464.56903"
         rx="24.35177"
         ry="24.251385" /><ellipse
         style="fill:#acacac;fill-opacity:1;stroke:none;stroke-width:2.1;stroke-linecap:round;stroke-dasharray:none;stroke-opacity:1;paint-order:fill markers stroke"
         id="path20181"
         cx="999.98212"
         cy="561.31366"
         rx="26.873156"
         ry="28.342003" /><ellipse
         style="fill:#acacac;fill-opacity:1;stroke:none;stroke-width:2.1;stroke-linecap:round;stroke-dasharray:none;stroke-opacity:1;paint-order:fill markers stroke"
         id="path20183"
         cx="846.50439"
         cy="533.03455"
         rx="16.05835"
         ry="15.186513" /><ellipse
         style="fill:#acacac;fill-opacity:1;stroke:none;stroke-width:1.58413;stroke-linecap:round;stroke-dasharray:none;stroke-opacity:1;paint-order:fill markers stroke"
         id="path20183-9"
         cx="1037.0084"
         cy="473.1131"
         rx="12.113612"
         ry="11.455942" /><ellipse
         style="fill:#acacac;fill-opacity:1;stroke:none;stroke-width:1.05681;stroke-linecap:round;stroke-dasharray:none;stroke-opacity:1;paint-order:fill markers stroke"
         id="path20183-5"
         cx="917.83588"
         cy="535.1626"
         rx="8.081214"
         ry="7.6424704" /></g><g
       id="g23985"
       style="display:inline"
       sodipodi:insensitive="true"><path
         style="display:inline;opacity:1;fill:#999999;fill-opacity:1;stroke:none;stroke-width:1.29317;stroke-linecap:round;stroke-dasharray:none;stroke-opacity:1;paint-order:fill markers stroke"
         d="m 86.674397,141.25229 c -7.964181,-1.88379 -14.808391,-7.97934 -16.877052,-15.03094 -0.816345,-2.78273 -0.827094,-7.57711 -0.02307,-10.29177 1.375791,-4.64518 5.379637,-9.62779 9.889346,-12.30685 2.732475,-1.62327 6.904678,-3.13563 10.113407,-3.665953 2.202386,-0.363989 8.346072,-0.214294 11.367572,0.276993 2.04617,0.3327 2.08005,-0.57108 0.10383,-2.769752 -3.426373,-3.812068 -4.930562,-7.511862 -4.911258,-12.080042 0.03591,-8.498219 6.835288,-15.575847 16.696338,-17.379597 3.6937,-0.675637 6.82073,-0.435127 10.56376,0.812488 5.24059,1.74678 5.56758,1.484045 3.23498,-2.599326 -2.25182,-3.941933 -2.99399,-7.209223 -2.705,-11.90823 0.24822,-4.036169 1.04836,-6.797926 2.90861,-10.039471 4.89015,-8.521254 13.95824,-14.290693 25.86601,-16.456875 10.45468,-1.901846 22.67393,0.280531 32.47429,5.799961 9.90374,5.57765 16.92348,14.880224 19.34253,25.632725 0.91489,4.066629 0.78078,11.204953 -0.28926,15.395704 -1.33648,5.234313 -1.33672,5.2363 -0.6692,5.46157 0.33204,0.112054 1.94877,-0.16974 3.59274,-0.626207 14.13478,-3.924725 30.45726,-0.266522 41.21319,9.236725 6.31879,5.582877 9.95845,11.608207 11.76904,19.483217 0.91593,3.98378 0.64418,11.49379 -0.5594,15.45912 -1.82701,6.0193 -5.79109,12.33223 -10.22541,16.28433 l -2.10477,1.87589 -79.29343,-0.0235 c -67.82927,-0.0201 -79.609239,-0.0982 -81.477788,-0.5402 z"
         id="path23311" /><path
         style="display:inline;opacity:1;mix-blend-mode:lighten;fill:#656565;fill-opacity:1;stroke:none;stroke-width:1.09055;stroke-linecap:round;stroke-dasharray:none;stroke-opacity:1;paint-order:fill markers stroke"
         d="m 909.8374,141.68587 c -9.34431,-1.55245 -17.45328,-7.65951 -20.92807,-15.76141 -1.65712,-3.86379 -1.89457,-5.0938 -1.89557,-9.81914 -7.4e-4,-3.88081 0.055,-4.4486 0.63905,-6.49964 3.39765,-11.931659 14.87389,-19.996494 27.61153,-19.403782 3.42291,0.159274 6.704,0.884137 9.64034,2.12976 1.08877,0.461858 2.29287,0.893599 2.67579,0.959416 l 0.69621,0.119674 -0.21262,-2.041668 c -0.57212,-5.493824 -0.0317,-10.909137 1.52261,-15.258236 2.63541,-7.37396 8.64445,-14.319884 15.71553,-18.165767 8.48938,-4.617287 19.04488,-5.630645 28.22122,-2.709324 5.45396,1.736269 10.37138,4.769849 14.51549,8.954663 4.47119,4.515034 7.46201,10.046659 8.7729,16.225604 0.31586,1.488896 0.42867,3.12727 0.43169,6.268075 0.007,4.75193 -0.26672,6.429862 -1.70333,10.534857 -0.45715,1.306285 -0.83122,2.573355 -0.83122,2.815708 0,0.91312 0.96632,0.38769 3.31118,-1.800428 3.61107,-3.369625 7.43367,-5.428035 12.56447,-6.765804 2.8149,-0.733932 9.2148,-0.7388 12.2553,-0.0093 10.5915,2.541127 18.1759,10.080672 20.2707,20.150892 0.6691,3.21677 0.5191,7.79638 -0.3596,10.97854 -2.8013,10.14418 -11.8534,17.66546 -22.895,19.02319 -1.7722,0.21792 -108.71936,0.29001 -110.0186,0.0742 z"
         id="path23732" /><path
         style="display:inline;opacity:1;fill:#999999;fill-opacity:1;stroke:none;stroke-width:1.69113;stroke-linecap:round;stroke-dasharray:none;stroke-opacity:1;paint-order:fill markers stroke"
         d="m 72.62651,309.35003 c -11.76776,-2.18035 -21.88065,-9.23552 -24.937277,-17.39724 -1.206219,-3.22082 -1.222101,-8.76996 -0.0341,-11.91199 2.032847,-5.37646 7.948877,-11.14348 14.612347,-14.2443 4.03747,-1.87882 10.20225,-3.62926 14.94341,-4.24307 3.25421,-0.42129 12.33202,-0.24803 16.79656,0.3206 3.02338,0.38507 3.07344,-0.66099 0.15341,-3.20579 -5.06276,-4.4122 -7.28532,-8.69444 -7.2568,-13.98179 0.0531,-9.83608 10.09972,-18.02793 24.67026,-20.11563 5.45775,-0.782 10.07821,-0.50364 15.60884,0.94039 7.74342,2.02177 8.22657,1.71768 4.77995,-3.00853 -3.32723,-4.5625 -4.42387,-8.34416 -3.99685,-13.78292 0.36677,-4.67158 1.54903,-7.86811 4.2977,-11.61997 7.22563,-9.86274 20.6245,-16.54046 38.21923,-19.04766 15.44768,-2.20124 33.50265,0.3247 47.98353,6.71304 14.6336,6.45573 25.00587,17.2228 28.58022,29.66805 1.35181,4.70683 1.15366,12.96893 -0.4274,17.81942 -1.97478,6.05834 -1.97512,6.06064 -0.9888,6.32138 0.49061,0.12969 2.87947,-0.19646 5.30856,-0.72479 20.88535,-4.54259 45.00319,-0.30848 60.89598,10.69084 9.33655,6.46178 14.71445,13.43567 17.38975,22.55043 1.35336,4.61094 0.95182,13.30324 -0.82655,17.89282 -2.69957,6.96692 -8.55683,14.27368 -15.1089,18.84795 l -3.10999,2.17121 -117.16275,-0.0272 C 92.79335,309.95198 75.38745,309.86161 72.62651,309.35005 Z"
         id="path23736" /><path
         style="display:inline;opacity:1;fill:#808080;fill-opacity:1;stroke:none;stroke-width:1.33906;stroke-linecap:round;stroke-dasharray:none;stroke-opacity:1;paint-order:fill markers stroke"
         d="m 1395.2306,243.71409 c -8.0972,-1.98666 -15.0558,-8.41507 -17.1591,-15.85172 -0.83,-2.93469 -0.8409,-7.99087 -0.023,-10.85377 1.3989,-4.89883 5.4696,-10.15352 10.0547,-12.97888 2.7781,-1.71191 7.02,-3.30685 10.2824,-3.86613 2.2392,-0.38386 8.4855,-0.22599 11.5575,0.29212 2.0804,0.35087 2.1148,-0.60227 0.1056,-2.921 -3.4837,-4.02023 -5.013,-7.92205 -4.9934,-12.73968 0.037,-8.96227 6.9496,-16.42639 16.9754,-18.32863 3.7554,-0.71253 6.9348,-0.45889 10.7404,0.85685 5.3281,1.84217 5.6605,1.56509 3.2889,-2.74126 -2.2893,-4.15718 -3.0439,-7.60289 -2.7501,-12.55849 0.2524,-4.25657 1.0659,-7.16914 2.9572,-10.58768 4.9718,-8.98657 14.1915,-15.07106 26.2983,-17.35553 10.6294,-2.0057 23.0528,0.29586 33.017,6.11668 10.0693,5.88222 17.2062,15.69277 19.6658,27.03242 0.9301,4.28869 0.7938,11.81681 -0.2941,16.2364 -1.3588,5.52014 -1.3591,5.52224 -0.6805,5.75981 0.3377,0.11817 1.9814,-0.17901 3.6528,-0.6604 14.3711,-4.13904 30.9663,-0.28108 41.902,9.7411 6.4244,5.88774 10.1248,12.24208 11.9657,20.54712 0.9312,4.20132 0.6549,12.12142 -0.5687,16.30328 -1.8576,6.34799 -5.8879,13.00565 -10.3963,17.17355 l -2.14,1.97833 -80.6186,-0.0248 c -68.9628,-0.0212 -80.9396,-0.10358 -82.8394,-0.56969 z"
         id="path23742" /><path
         style="display:inline;opacity:1;mix-blend-mode:normal;fill:#999999;fill-opacity:1;stroke:none;stroke-width:1.96845;stroke-linecap:round;stroke-dasharray:none;stroke-opacity:1;paint-order:fill markers stroke"
         d="m 1489.215,301.33968 c -14.2269,-2.44346 -26.4531,-10.34998 -30.1484,-19.49658 -1.4583,-3.60948 -1.4775,-9.82825 -0.041,-13.34943 2.4576,-6.02524 9.6099,-12.48817 17.6658,-15.96317 4.8812,-2.10554 12.3343,-4.06721 18.0662,-4.75509 3.9342,-0.47213 14.909,-0.27796 20.3065,0.35929 3.6552,0.43154 3.7157,-0.74075 0.1855,-3.59264 -6.1207,-4.94462 -8.8077,-9.74361 -8.7733,-15.66898 0.064,-11.02301 12.2103,-20.20338 29.8256,-22.54301 6.5983,-0.87637 12.1843,-0.56441 18.8707,1.05387 9.3615,2.26574 9.9456,1.92495 5.7788,-3.37158 -4.0226,-5.11306 -5.3484,-9.35105 -4.8321,-15.44612 0.4434,-5.2353 1.8727,-8.81756 5.1958,-13.02216 8.7356,-11.05289 24.9344,-18.53641 46.2059,-21.34616 18.6758,-2.46687 40.5037,0.36388 58.0106,7.52311 17.6916,7.23475 30.2314,19.30109 34.5526,33.24812 1.6344,5.27481 1.3948,14.53391 -0.5167,19.96971 -2.3874,6.78941 -2.3878,6.79199 -1.1954,7.08419 0.5931,0.14534 3.4812,-0.22017 6.4179,-0.81225 25.2497,-5.09075 54.4075,-0.34571 73.6214,11.98092 11.2876,7.24153 17.7893,15.05696 21.0237,25.27161 1.6362,5.16735 1.1507,14.90856 -0.9993,20.05197 -3.2637,7.80762 -10.3449,15.9961 -18.2662,21.12235 l -3.7599,2.43321 -141.6462,-0.0305 c -121.1672,-0.0261 -142.2104,-0.12739 -145.5483,-0.70068 z"
         id="path23738" /><path
         style="display:inline;opacity:1;mix-blend-mode:normal;fill:#656565;fill-opacity:1;stroke:none;stroke-width:1.516;stroke-linecap:round;stroke-dasharray:none;stroke-opacity:1;paint-order:fill markers stroke"
         d="m 1207.0473,290.40619 c -12.6648,-2.21346 -23.6552,-10.9208 -28.3647,-22.47237 -2.246,-5.50894 -2.5678,-7.26266 -2.5692,-13.99998 -10e-4,-5.53321 0.074,-6.34275 0.8661,-9.26709 4.605,-17.01198 20.1593,-28.5107 37.4232,-27.66562 4.6392,0.22709 9.0862,1.26059 13.066,3.03658 1.4756,0.65851 3.1076,1.27408 3.6266,1.36792 l 0.9436,0.17063 -0.2882,-2.91098 c -0.7754,-7.83301 -0.043,-15.55408 2.0637,-21.75496 3.5719,-10.51368 11.7162,-20.41708 21.3,-25.90048 11.506,-6.58326 25.8123,-8.02809 38.2494,-3.86291 7.392,2.47555 14.0568,6.80078 19.6735,12.76742 6.06,6.43747 10.1136,14.32438 11.8903,23.13422 0.4281,2.12285 0.581,4.45882 0.5851,8.93693 0.01,6.77523 -0.3615,9.1676 -2.3086,15.02044 -0.6196,1.86248 -1.1266,3.66905 -1.1266,4.01459 0,1.30191 1.3097,0.55277 4.4878,-2.56702 4.8943,-4.80436 10.0752,-7.73921 17.0292,-9.64658 3.8151,-1.04643 12.4892,-1.05337 16.6101,-0.0133 14.3552,3.6231 24.6346,14.37286 27.4738,28.73083 0.9069,4.58643 0.7036,11.11597 -0.4874,15.65304 -3.7967,14.46342 -16.0654,25.18714 -31.0305,27.12297 -2.402,0.31071 -147.3523,0.41349 -149.1132,0.10573 z"
         id="path23740" /><path
         style="display:inline;opacity:1;mix-blend-mode:lighten;fill:#6b6b6b;fill-opacity:1;stroke:none;stroke-width:1.20663;stroke-linecap:round;stroke-dasharray:none;stroke-opacity:1;paint-order:fill markers stroke"
         d="m 431.60778,228.81403 c -9.09505,-1.43618 -16.9111,-6.08332 -19.2735,-11.45934 -0.93226,-2.12151 -0.94455,-5.77666 -0.0263,-7.84627 1.57114,-3.54141 6.14352,-7.34007 11.29358,-9.38254 3.12047,-1.23755 7.88511,-2.39054 11.54945,-2.79485 2.51512,-0.2775 9.53118,-0.16338 12.98172,0.21117 2.33671,0.25365 2.3754,-0.43538 0.11857,-2.11161 -3.91291,-2.90626 -5.63068,-5.72692 -5.60864,-9.20962 0.041,-6.4789 7.80587,-11.87476 19.06714,-13.24991 4.21818,-0.51509 7.78924,-0.33173 12.06375,0.61943 5.98473,1.33171 6.35815,1.13141 3.69433,-1.98169 -2.57156,-3.00525 -3.41912,-5.49619 -3.08909,-9.07863 0.28347,-3.0771 1.19722,-5.18262 3.32161,-7.65392 5.58453,-6.49646 15.94024,-10.89498 29.53885,-12.54644 11.93919,-1.44994 25.89351,0.21387 37.08547,4.42179 11.31002,4.25231 19.32653,11.34443 22.08907,19.54196 1.0448,3.10032 0.89164,8.54246 -0.33033,11.73742 -1.52626,3.99055 -1.52653,3.99206 -0.76422,4.16381 0.37918,0.0854 2.22548,-0.12941 4.10288,-0.47741 16.14185,-2.99215 34.78203,-0.2032 47.06525,7.04192 7.21603,4.25629 11.3725,8.8499 13.44018,14.85367 1.04599,3.03717 0.73565,8.76267 -0.63883,11.78577 -2.08644,4.58902 -6.6134,9.40189 -11.67736,12.4149 l -2.40364,1.43014 -90.55268,-0.0179 c -77.46067,-0.0153 -90.91333,-0.0749 -93.04721,-0.41183 z"
         id="path23744" /><path
         style="display:inline;opacity:1;mix-blend-mode:normal;fill:#c4c4c4;fill-opacity:1;stroke:none;stroke-width:1.96845;stroke-linecap:round;stroke-dasharray:none;stroke-opacity:1;paint-order:fill markers stroke"
         d="m 1667.4642,346.5469 c -14.2269,-2.44346 -26.4531,-10.34998 -30.1484,-19.49658 -1.4583,-3.60948 -1.4775,-9.82825 -0.041,-13.34943 2.4576,-6.02524 9.6099,-12.48817 17.6658,-15.96317 4.8812,-2.10554 12.3343,-4.06721 18.0662,-4.75509 3.9342,-0.47213 14.909,-0.27796 20.3065,0.35929 3.6552,0.43154 3.7157,-0.74075 0.1855,-3.59264 -6.1207,-4.94462 -8.8077,-9.74361 -8.7733,-15.66898 0.064,-11.02301 12.2103,-20.20338 29.8256,-22.54301 6.5983,-0.87637 12.1843,-0.56441 18.8707,1.05387 9.3615,2.26574 9.9456,1.92495 5.7788,-3.37158 -4.0226,-5.11306 -5.3484,-9.35105 -4.8321,-15.44612 0.4434,-5.2353 1.8727,-8.81756 5.1958,-13.02216 8.7356,-11.05289 24.9344,-18.53641 46.2059,-21.34616 18.6758,-2.46687 40.5037,0.36388 58.0106,7.52311 17.6916,7.23475 30.2314,19.30109 34.5526,33.24812 1.6344,5.27481 1.3948,14.53391 -0.5167,19.96971 -2.3874,6.78941 -2.3878,6.79199 -1.1954,7.08419 0.5931,0.14534 3.4812,-0.22017 6.4179,-0.81225 25.2497,-5.09075 54.4075,-0.34571 73.6214,11.98092 11.2876,7.24153 17.7893,15.05696 21.0237,25.27161 1.6362,5.16735 1.1507,14.90856 -0.9993,20.05197 -3.2637,7.80762 -10.3449,15.9961 -18.2662,21.12235 l -3.7599,2.43321 -141.6462,-0.0305 c -121.1672,-0.0261 -142.2104,-0.12739 -145.5483,-0.70068 z"
         id="path23746" /><path
         style="display:inline;opacity:1;fill:#5c5c5c;fill-opacity:1;stroke:none;stroke-width:0.77545;stroke-linecap:round;stroke-dasharray:none;stroke-opacity:1;paint-order:fill markers stroke"
         d="m 327.40202,426.27473 c -4.64118,-1.16236 -8.62968,-4.92354 -9.83521,-9.27462 -0.47573,-1.71704 -0.48199,-4.67535 -0.0134,-6.35039 0.80174,-2.86623 3.13501,-5.94068 5.76307,-7.59375 1.59237,-1.00162 4.02374,-1.9348 5.89364,-2.26203 1.28346,-0.22459 4.86373,-0.13222 6.62453,0.17092 1.19241,0.20528 1.21216,-0.35238 0.0605,-1.70903 -1.99674,-2.35219 -2.87332,-4.63509 -2.86207,-7.45382 0.021,-5.2437 3.98331,-9.61085 9.7299,-10.72383 2.15252,-0.41688 3.97481,-0.26848 6.15608,0.50134 3.05399,1.07783 3.24455,0.91571 1.88521,-1.60387 -1.31226,-2.43231 -1.74476,-4.44835 -1.57635,-7.3478 0.14465,-2.49046 0.61093,-4.19456 1.695,-6.1947 2.84977,-5.25792 8.13425,-8.81787 15.07357,-10.15448 6.09253,-1.17351 13.21336,0.1731 18.92459,3.57879 5.77146,3.4416 9.86225,9.18162 11.27197,15.81629 0.53315,2.50925 0.455,6.91384 -0.16857,9.49968 -0.77884,3.22976 -0.77898,3.23099 -0.38998,3.36999 0.1935,0.0691 1.13566,-0.10474 2.09369,-0.38639 8.23713,-2.42169 17.74915,-0.16446 24.01723,5.69938 3.68231,3.44483 5.80335,7.16267 6.85848,12.02183 0.53376,2.45814 0.37539,7.09207 -0.326,9.53882 -1.0647,3.71413 -3.37479,7.60943 -5.95891,10.04801 l -1.22657,1.15749 -46.20871,-0.0145 c -39.52791,-0.0124 -46.39275,-0.0606 -47.48166,-0.33332 z"
         id="path23930-4" /><path
         style="display:inline;opacity:1;mix-blend-mode:normal;fill:#c4c4c4;fill-opacity:1;stroke:none;stroke-width:1.96845;stroke-linecap:round;stroke-dasharray:none;stroke-opacity:1;paint-order:fill markers stroke"
         d="m 48.43267,359.25972 c -14.2269,-2.44346 -26.4531,-10.34998 -30.1484,-19.49658 -1.458297,-3.60948 -1.477497,-9.82825 -0.041,-13.34943 2.4576,-6.02524 9.6099,-12.48817 17.6658,-15.96317 4.8812,-2.10554 12.3343,-4.06721 18.0662,-4.75509 3.9342,-0.47213 14.909,-0.27796 20.3065,0.35929 3.6552,0.43154 3.7157,-0.74075 0.1855,-3.59264 -6.1207,-4.94462 -8.8077,-9.74361 -8.7733,-15.66898 0.064,-11.02301 12.2103,-20.20338 29.8256,-22.54301 6.5983,-0.87637 12.1843,-0.56441 18.8707,1.05387 9.3615,2.26574 9.9456,1.92495 5.7788,-3.37158 -4.0226,-5.11306 -5.3484,-9.35105 -4.8321,-15.44612 0.4434,-5.2353 1.8727,-8.81756 5.1958,-13.02216 8.7356,-11.05289 24.9344,-18.53641 46.2059,-21.34616 18.6758,-2.46687 40.5037,0.36388 58.0106,7.52311 17.6916,7.23475 30.2314,19.30109 34.5526,33.24812 1.6344,5.27481 1.3948,14.53391 -0.5167,19.96971 -2.3874,6.78941 -2.3878,6.79199 -1.1954,7.08419 0.5931,0.14534 3.4812,-0.22017 6.4179,-0.81225 25.2497,-5.09075 54.4075,-0.34571 73.6214,11.98092 11.2876,7.24153 17.7893,15.05696 21.0237,25.27161 1.6362,5.16735 1.1507,14.90856 -0.9993,20.05197 -3.2637,7.80762 -10.3449,15.9961 -18.2662,21.12235 l -3.7599,2.43321 -141.6462,-0.0305 c -121.1672,-0.0261 -142.2104,-0.12739 -145.5483,-0.70068 z"
         id="path23748" /><path
         style="display:inline;opacity:1;mix-blend-mode:normal;fill:#c4c4c4;fill-opacity:1;stroke:none;stroke-width:1.96845;stroke-linecap:round;stroke-dasharray:none;stroke-opacity:1;paint-order:fill markers stroke"
         d="m 217.00194,175.15495 c -14.2269,-2.44346 -26.4531,-10.34998 -30.1484,-19.49658 -1.4583,-3.60948 -1.4775,-9.82825 -0.041,-13.34943 2.4576,-6.02524 9.6099,-12.48817 17.6658,-15.96317 4.8812,-2.10554 12.3343,-4.06721 18.0662,-4.75509 3.9342,-0.47213 14.909,-0.27796 20.3065,0.35929 3.6552,0.43154 3.7157,-0.74075 0.1855,-3.59264 -6.1207,-4.94462 -8.8077,-9.74361 -8.7733,-15.66898 0.064,-11.02301 12.2103,-20.20338 29.8256,-22.54301 6.5983,-0.87637 12.1843,-0.56441 18.8707,1.05387 9.3615,2.26574 9.9456,1.92495 5.7788,-3.37158 -4.0226,-5.11306 -5.3484,-9.35105 -4.8321,-15.44612 0.4434,-5.2353 1.8727,-8.81756 5.1958,-13.02216 8.7356,-11.05289 24.9344,-18.53641 46.2059,-21.34616 18.6758,-2.46687 40.5037,0.36388 58.0106,7.52311 17.6916,7.23475 30.2314,19.30109 34.5526,33.24812 1.6344,5.27481 1.3948,14.53391 -0.5167,19.96971 -2.3874,6.78941 -2.3878,6.79199 -1.1954,7.08419 0.5931,0.14534 3.4812,-0.22017 6.4179,-0.81225 25.2497,-5.09075 54.4075,-0.34571 73.6214,11.98092 11.2876,7.24153 17.7893,15.05696 21.0237,25.27161 1.6362,5.16735 1.1507,14.90856 -0.9993,20.05197 -3.2637,7.80762 -10.3449,15.9961 -18.2662,21.12235 l -3.7599,2.43321 -141.6462,-0.0305 c -121.1672,-0.0261 -142.2104,-0.12739 -145.5483,-0.70068 z"
         id="path23750" /><path
         style="display:inline;opacity:1;fill:#999999;fill-opacity:1;stroke:none;stroke-width:1.34151;stroke-linecap:round;stroke-dasharray:none;stroke-opacity:1;paint-order:fill markers stroke"
         d="m 1111.7256,168.4132 c -8.8817,-1.81787 -16.5143,-7.70012 -18.8212,-14.50495 -0.9104,-2.68536 -0.9224,-7.31196 -0.025,-9.93162 1.5342,-4.48262 5.9993,-9.29087 11.0284,-11.87618 3.0473,-1.56647 7.7001,-3.0259 11.2785,-3.53767 2.4561,-0.35125 9.3074,-0.20679 12.677,0.26731 2.2818,0.32105 2.3196,-0.5511 0.1158,-2.67283 -3.8211,-3.67867 -5.4985,-7.24899 -5.477,-11.65731 0.04,-8.20083 7.6227,-15.030788 18.6196,-16.771419 4.1192,-0.651988 7.6064,-0.419898 11.7806,0.784059 5.8443,1.68565 6.2089,1.432113 3.6077,-2.508367 -2.5113,-3.803982 -3.3389,-6.956943 -3.0166,-11.491508 0.2767,-3.894925 1.169,-6.56004 3.2436,-9.688145 5.4535,-8.22306 15.5661,-13.790603 28.8455,-15.880983 11.6591,-1.835294 25.2859,0.270717 36.2151,5.596997 11.0446,5.382464 18.873,14.359504 21.5707,24.735728 1.0202,3.924321 0.8707,10.812838 -0.3226,14.856938 -1.4905,5.05115 -1.4907,5.05307 -0.7463,5.27045 0.3703,0.10813 2.1733,-0.1638 4.0066,-0.60429 15.763,-3.78738 33.9657,-0.2572 45.9606,8.91349 7.0467,5.38751 11.1056,11.20198 13.1247,18.80142 1.0215,3.84437 0.7185,11.09157 -0.6238,14.91814 -2.0374,5.80866 -6.4581,11.90067 -11.4033,15.71447 l -2.3472,1.81024 -88.4274,-0.0227 c -75.6426,-0.0194 -88.7796,-0.0948 -90.8634,-0.52128 z"
         id="path23758" /><path
         style="display:inline;opacity:1;fill:#808080;fill-opacity:1;stroke:none;stroke-width:1.573;stroke-linecap:round;stroke-dasharray:none;stroke-opacity:1;paint-order:fill markers stroke"
         d="m 740.63169,173.93792 c -9.08481,-2.44346 -16.89206,-10.34998 -19.2518,-19.49658 -0.93121,-3.60948 -0.94348,-9.82825 -0.0263,-13.34943 1.56937,-6.02524 6.1366,-12.48817 11.28086,-15.96317 3.11696,-2.10554 7.87623,-4.06721 11.53645,-4.75509 2.51228,-0.47213 9.52044,-0.27796 12.9671,0.35929 2.33407,0.43154 2.37272,-0.74075 0.11843,-3.59264 -3.9085,-4.94462 -5.62434,-9.74361 -5.60232,-15.66898 0.041,-11.02301 7.79708,-20.20338 19.04567,-22.54302 4.21343,-0.87636 7.78046,-0.5644 12.05016,1.05388 5.97799,2.26574 6.35099,1.92495 3.69017,-3.37158 -2.56866,-5.11306 -3.41527,-9.35106 -3.08561,-15.44612 0.28315,-5.2353 1.19587,-8.81757 3.31787,-13.02216 5.57824,-11.05289 15.92229,-18.53641 29.50558,-21.34616 11.92575,-2.46688 25.86435,0.36388 37.04371,7.52311 11.29728,7.23475 19.30476,19.30109 22.06419,33.24812 1.04362,5.27481 0.89064,14.5339 -0.32996,19.96971 -1.52454,6.78941 -1.52481,6.79199 -0.76336,7.08419 0.37876,0.14534 2.22298,-0.22017 4.09826,-0.81225 16.12367,-5.09075 34.74286,-0.34571 47.01225,11.98092 7.2079,7.24153 11.35969,15.05696 13.42504,25.27161 1.04481,5.16735 0.73482,14.90856 -0.63811,20.05197 -2.08409,7.80762 -6.60595,15.9961 -11.66421,21.12235 l -2.40093,2.43321 -90.4507,-0.0305 c -77.37344,-0.0261 -90.81095,-0.12739 -92.94242,-0.70068 z"
         id="path23760" /><path
         style="display:inline;opacity:1;mix-blend-mode:normal;fill:#989898;fill-opacity:1;stroke:none;stroke-width:1.74273;stroke-linecap:round;stroke-dasharray:none;stroke-opacity:1;paint-order:fill markers stroke"
         d="m 549.90776,259.64159 c -12.22442,-2.22894 -22.72975,-9.44134 -25.90493,-17.78495 -1.25304,-3.2926 -1.26953,-8.96541 -0.0352,-12.17747 2.11169,-5.49627 8.25728,-11.39181 15.17929,-14.56174 4.19416,-1.92069 10.59821,-3.71014 15.52333,-4.33763 3.38045,-0.43068 12.81052,-0.25356 17.44831,0.32774 3.14072,0.39366 3.1927,-0.67571 0.15939,-3.27723 -5.2592,-4.51053 -7.568,-8.88821 -7.53844,-14.29338 0.055,-10.05529 10.49167,-18.4297 25.62756,-20.56393 5.66957,-0.79944 10.46933,-0.51486 16.2146,0.96135 8.04384,2.06682 8.54573,1.75595 4.96542,-3.07559 -3.45641,-4.66418 -4.5956,-8.53011 -4.15197,-14.09008 0.38099,-4.77569 1.60911,-8.04346 4.46447,-11.87893 7.50604,-10.08254 21.42482,-16.90908 39.70229,-19.47215 16.04713,-2.25031 34.80269,0.33193 49.84544,6.86264 15.20146,6.5996 25.97625,17.60662 29.68923,30.32923 1.40435,4.81172 1.19847,13.25796 -0.44398,18.21654 -2.05136,6.19336 -2.05171,6.19571 -1.02714,6.46226 0.50962,0.13258 2.99121,-0.20084 5.51456,-0.74094 21.69573,-4.64383 46.74949,-0.31536 63.25898,10.9291 9.69884,6.60578 15.2854,13.73509 18.06455,23.05298 1.4059,4.7137 0.98874,13.59972 -0.85864,18.29158 -2.80433,7.12218 -8.88883,14.59178 -15.69518,19.26799 l -3.23069,2.2196 -121.70909,-0.0278 c -104.11257,-0.0238 -122.19388,-0.11621 -125.06196,-0.63917 z"
         id="path23752" /><path
         style="display:inline;opacity:1;fill:#5c5c5c;fill-opacity:1;stroke:none;stroke-width:0.77545;stroke-linecap:round;stroke-dasharray:none;stroke-opacity:1;paint-order:fill markers stroke"
         d="m 551.35407,430.91982 c -4.64118,-1.16236 -8.62968,-4.92354 -9.83521,-9.27462 -0.47573,-1.71704 -0.48199,-4.67535 -0.0134,-6.35039 0.80174,-2.86623 3.13501,-5.94068 5.76307,-7.59375 1.59237,-1.00162 4.02374,-1.9348 5.89364,-2.26203 1.28346,-0.22459 4.86373,-0.13222 6.62453,0.17092 1.19241,0.20528 1.21216,-0.35238 0.0605,-1.70903 -1.99674,-2.35219 -2.87332,-4.63509 -2.86207,-7.45382 0.021,-5.2437 3.98331,-9.61085 9.7299,-10.72383 2.15252,-0.41688 3.97481,-0.26848 6.15608,0.50134 3.05399,1.07783 3.24455,0.91571 1.88521,-1.60387 -1.31226,-2.43231 -1.74476,-4.44835 -1.57635,-7.3478 0.14465,-2.49046 0.61093,-4.19456 1.695,-6.1947 2.84977,-5.25792 8.13425,-8.81787 15.07357,-10.15448 6.09253,-1.17351 13.21336,0.1731 18.92459,3.57879 5.77146,3.4416 9.86225,9.18162 11.27197,15.81629 0.53315,2.50925 0.455,6.91384 -0.16857,9.49968 -0.77884,3.22976 -0.77898,3.23099 -0.38998,3.36999 0.1935,0.0691 1.13566,-0.10474 2.09369,-0.38639 8.23713,-2.42169 17.74915,-0.16446 24.01723,5.69938 3.68231,3.44483 5.80335,7.16267 6.85848,12.02183 0.53376,2.45814 0.37539,7.09207 -0.326,9.53882 -1.0647,3.71413 -3.37479,7.60943 -5.95891,10.04801 l -1.22657,1.15749 -46.20871,-0.0145 c -39.52791,-0.0124 -46.39275,-0.0606 -47.48166,-0.33332 z"
         id="path23930" /><path
         style="display:inline;opacity:1;fill:#c4c4c4;fill-opacity:1;stroke:none;stroke-width:1.573;stroke-linecap:round;stroke-dasharray:none;stroke-opacity:1;paint-order:fill markers stroke"
         d="m 436.43878,369.8645 c -9.08481,-2.44346 -16.89206,-10.34998 -19.2518,-19.49658 -0.93121,-3.60948 -0.94348,-9.82825 -0.0263,-13.34943 1.56937,-6.02524 6.1366,-12.48817 11.28086,-15.96317 3.11696,-2.10554 7.87623,-4.06721 11.53645,-4.75509 2.51228,-0.47213 9.52044,-0.27796 12.9671,0.35929 2.33407,0.43154 2.37272,-0.74075 0.11843,-3.59264 -3.9085,-4.94462 -5.62434,-9.74361 -5.60232,-15.66898 0.041,-11.02301 7.79708,-20.20338 19.04567,-22.54302 4.21343,-0.87636 7.78046,-0.5644 12.05016,1.05388 5.97799,2.26574 6.35099,1.92495 3.69017,-3.37158 -2.56866,-5.11306 -3.41527,-9.35106 -3.08561,-15.44612 0.28315,-5.2353 1.19587,-8.81757 3.31787,-13.02216 5.57824,-11.05289 15.92229,-18.53641 29.50558,-21.34616 11.92575,-2.46688 25.86435,0.36388 37.04371,7.52311 11.29728,7.23475 19.30476,19.30109 22.06419,33.24812 1.04362,5.27481 0.89064,14.5339 -0.32996,19.96971 -1.52454,6.78941 -1.52481,6.79199 -0.76336,7.08419 0.37876,0.14534 2.22298,-0.22017 4.09826,-0.81225 16.12367,-5.09075 34.74286,-0.34571 47.01225,11.98092 7.2079,7.24153 11.35969,15.05696 13.42504,25.27161 1.04481,5.16735 0.73482,14.90856 -0.63811,20.05197 -2.08409,7.80762 -6.60595,15.9961 -11.66421,21.12235 l -2.40093,2.43321 -90.4507,-0.0305 c -77.37344,-0.0261 -90.81095,-0.12739 -92.94242,-0.70068 z"
         id="path23762" /><path
         style="display:inline;opacity:1;mix-blend-mode:lighten;fill:#808080;fill-opacity:1;stroke:none;stroke-width:1.27449;stroke-linecap:round;stroke-dasharray:none;stroke-opacity:1;paint-order:fill markers stroke"
         d="m 1697.0207,122.87269 c -8.7767,-1.66038 -16.3192,-7.033 -18.599,-13.24828 -0.8996,-2.4527 -0.9114,-6.67847 -0.025,-9.07117 1.5162,-4.094258 5.9285,-8.485935 10.8984,-10.847259 3.0113,-1.430752 7.6091,-2.763742 11.1453,-3.231168 2.427,-0.320821 9.1975,-0.188879 12.5273,0.244144 2.2549,0.293239 2.2923,-0.503353 0.1144,-2.441263 -3.7759,-3.359958 -5.4336,-6.620957 -5.4123,-10.647351 0.04,-7.490332 7.5326,-13.728557 18.3998,-15.318384 4.0706,-0.595502 7.5166,-0.38352 11.6415,0.71613 5.7753,1.539611 6.1357,1.308038 3.5651,-2.291048 -2.4816,-3.474416 -3.2995,-6.354212 -2.981,-10.495914 0.2735,-3.55748 1.1553,-5.991696 3.2053,-8.84879 5.3891,-7.510636 15.3824,-12.595821 28.5051,-14.505096 11.5213,-1.676289 24.9873,0.247263 35.7875,5.112087 10.9142,4.916142 18.6501,13.115435 21.316,22.59269 1.0082,3.584328 0.8604,9.876044 -0.3188,13.569774 -1.4728,4.613525 -1.4731,4.615278 -0.7375,4.813833 0.3659,0.09876 2.1477,-0.149609 3.9593,-0.551938 15.5769,-3.459255 33.5647,-0.234916 45.4181,8.141249 6.9634,4.920748 10.9744,10.231472 12.9697,17.172509 1.0094,3.511306 0.71,10.130635 -0.6165,13.625675 -2.0134,5.30541 -6.3819,10.86963 -11.2686,14.35301 l -2.3195,1.65341 -87.3835,-0.0207 c -74.7497,-0.0177 -87.7315,-0.0866 -89.7906,-0.47612 z"
         id="path23764" /><path
         style="display:inline;opacity:1;mix-blend-mode:lighten;fill:#4d4d4d;fill-opacity:1;stroke:none;stroke-width:0.843975;stroke-linecap:round;stroke-dasharray:none;stroke-opacity:1;paint-order:fill markers stroke"
         d="m 1316.8442,96.565919 c -7.2462,-1.199007 -13.5344,-5.915696 -16.2289,-12.173076 -1.2851,-2.984142 -1.4692,-3.934111 -1.47,-7.583659 -5e-4,-2.99729 0.043,-3.435809 0.4956,-5.019896 2.6347,-9.215236 11.5341,-15.443984 21.4116,-14.986216 2.6543,0.12301 5.1987,0.682851 7.4758,1.644885 0.8442,0.356715 1.778,0.690157 2.0749,0.740996 l 0.5399,0.09242 -0.1649,-1.576849 c -0.4437,-4.243069 -0.025,-8.425507 1.1807,-11.784461 2.0437,-5.695168 6.7034,-11.059743 12.1868,-14.030051 6.5831,-3.566095 14.7685,-4.348746 21.8844,-2.092504 4.2293,1.340978 8.0426,3.683912 11.2562,6.915994 3.4672,3.487111 5.7865,7.759381 6.803,12.531599 0.245,1.149918 0.3325,2.415296 0.3348,4.841045 0.01,3.670083 -0.2068,4.966008 -1.3209,8.136433 -0.3545,1.008889 -0.6445,1.987497 -0.6445,2.174673 0,0.705233 0.7493,0.299428 2.5676,-1.390533 2.8003,-2.602479 5.7646,-4.19226 9.7433,-5.22547 2.1828,-0.566835 7.1457,-0.570598 9.5035,-0.0068 8.2132,1.962598 14.0947,7.785648 15.7191,15.563223 0.5188,2.484434 0.4026,6.021426 -0.2789,8.479113 -2.1722,7.834698 -9.1918,13.643638 -17.7541,14.692258 -1.3743,0.168314 -84.3075,0.223988 -85.315,0.05725 z"
         id="path23926" /><path
         style="display:inline;opacity:1;mix-blend-mode:normal;fill:#454545;fill-opacity:1;stroke:none;stroke-width:0.943685;stroke-linecap:round;stroke-dasharray:none;stroke-opacity:1;paint-order:fill markers stroke"
         d="m 1325.3749,361.38653 c -7.0584,-1.13192 -13.1242,-4.79454 -14.9575,-9.03163 -0.7235,-1.67206 -0.733,-4.55285 -0.02,-6.18401 1.2193,-2.79114 4.7677,-5.78504 8.7645,-7.39481 2.4217,-0.97537 6.1194,-1.8841 8.9631,-2.20275 1.952,-0.21871 7.3969,-0.12877 10.0747,0.16643 1.8135,0.19991 1.8435,-0.34314 0.092,-1.66426 -3.0367,-2.29055 -4.3698,-4.51364 -4.3527,-7.25852 0.032,-5.10632 6.0579,-9.35905 14.7973,-10.44286 3.2737,-0.40597 6.045,-0.26146 9.3623,0.4882 4.6446,1.04958 4.9343,0.89171 2.8671,-1.56186 -1.9957,-2.36859 -2.6535,-4.3318 -2.3974,-7.15529 0.22,-2.42521 0.9291,-4.08466 2.5778,-6.0324 4.334,-5.12016 12.3707,-8.58684 22.9241,-9.88843 9.2656,-1.14277 20.0951,0.16856 28.7808,3.48501 8.7773,3.35144 14.9987,8.94107 17.1426,15.40192 0.8108,2.44351 0.6919,6.73271 -0.2564,9.2508 -1.1845,3.14514 -1.1847,3.14633 -0.5931,3.28169 0.2943,0.0673 1.7271,-0.10199 3.1841,-0.37627 12.5272,-2.35825 26.9932,-0.16015 36.5258,5.55006 5.6001,3.35458 8.8258,6.97501 10.4305,11.70687 0.8117,2.39373 0.5709,6.90626 -0.4958,9.2889 -1.6193,3.61682 -5.1324,7.41006 -9.0624,9.78476 l -1.8654,1.12716 -70.2749,-0.0141 c -60.1146,-0.0121 -70.5547,-0.059 -72.2107,-0.32458 z"
         id="path23928" /><path
         style="display:inline;opacity:1;mix-blend-mode:lighten;fill:#2e2e2e;fill-opacity:1;stroke:none;stroke-width:0.918071;stroke-linecap:round;stroke-dasharray:none;stroke-opacity:1;paint-order:fill markers stroke"
         d="m 85.320677,464.46834 c -8.574392,-1.19901 -16.015188,-5.9157 -19.203577,-12.17308 -1.520652,-2.98414 -1.738497,-3.93411 -1.739443,-7.58366 -5.92e-4,-2.99729 0.05088,-3.43581 0.586441,-5.01989 3.117627,-9.21524 13.648243,-15.44399 25.33624,-14.98622 3.14082,0.12301 6.151595,0.68285 8.846077,1.64489 0.998935,0.35671 2.103895,0.69015 2.455215,0.74099 l 0.63886,0.0924 -0.19512,-1.57685 c -0.52503,-4.24306 -0.0296,-8.4255 1.39712,-11.78446 2.4183,-5.69517 7.9321,-11.05974 14.42058,-14.03005 7.78975,-3.56609 17.47549,-4.34874 25.8957,-2.0925 5.00451,1.34098 9.51677,3.68391 13.31941,6.91599 4.10272,3.48711 6.84713,7.75938 8.04995,12.5316 0.28991,1.14992 0.39345,2.4153 0.39617,4.84105 0.0118,3.67008 -0.2447,4.966 -1.56301,8.13643 -0.41948,1.00889 -0.76264,1.9875 -0.76264,2.17467 0,0.70524 0.88665,0.29943 3.03823,-1.39053 3.31358,-2.60248 6.82122,-4.19226 11.5292,-5.22547 2.5829,-0.56684 8.45547,-0.5706 11.24544,-0.007 9.71864,1.9626 16.67819,7.78565 18.60034,15.56322 0.61389,2.48444 0.47639,6.02143 -0.33002,8.47912 -2.57036,7.83469 -10.87662,13.64363 -21.00834,14.69225 -1.62621,0.16832 -99.760653,0.22399 -100.952823,0.0573 z"
         id="path23926-4" /><path
         style="display:inline;opacity:1;mix-blend-mode:normal;fill:#3d3d3d;fill-opacity:1;stroke:none;stroke-width:0.943685;stroke-linecap:round;stroke-dasharray:none;stroke-opacity:1;paint-order:fill markers stroke"
         d="m 1528.9051,438.81224 c -7.0584,-1.13192 -13.1242,-4.79454 -14.9575,-9.03163 -0.7235,-1.67206 -0.733,-4.55285 -0.02,-6.18401 1.2193,-2.79114 4.7677,-5.78504 8.7645,-7.39481 2.4217,-0.97537 6.1194,-1.8841 8.9631,-2.20275 1.952,-0.21871 7.3969,-0.12877 10.0747,0.16643 1.8135,0.19991 1.8435,-0.34314 0.092,-1.66426 -3.0367,-2.29055 -4.3698,-4.51364 -4.3527,-7.25852 0.032,-5.10632 6.0579,-9.35905 14.7973,-10.44286 3.2737,-0.40597 6.045,-0.26146 9.3623,0.4882 4.6446,1.04958 4.9343,0.89171 2.8671,-1.56186 -1.9957,-2.36859 -2.6535,-4.3318 -2.3974,-7.15529 0.22,-2.42521 0.9291,-4.08466 2.5778,-6.0324 4.334,-5.12016 12.3707,-8.58684 22.9241,-9.88843 9.2656,-1.14277 20.0951,0.16856 28.7808,3.48501 8.7773,3.35144 14.9987,8.94107 17.1426,15.40192 0.8108,2.44351 0.6919,6.73271 -0.2564,9.2508 -1.1845,3.14514 -1.1847,3.14633 -0.5931,3.28169 0.2943,0.0673 1.7271,-0.10199 3.1841,-0.37627 12.5272,-2.35825 26.9932,-0.16015 36.5258,5.55006 5.6001,3.35458 8.8258,6.97501 10.4305,11.70687 0.8117,2.39373 0.5709,6.90626 -0.4958,9.2889 -1.6193,3.61682 -5.1324,7.41006 -9.0624,9.78476 l -1.8654,1.12716 -70.2749,-0.0141 c -60.1146,-0.0121 -70.5547,-0.059 -72.2107,-0.32458 z"
         id="path23928-7" /><path
         style="display:inline;opacity:1;mix-blend-mode:normal;fill:#bababa;fill-opacity:0.84058;stroke:none;stroke-width:1.96845;stroke-linecap:round;stroke-dasharray:none;stroke-opacity:1;paint-order:fill markers stroke"
         d="m 855.55947,342.45385 c -14.2269,-2.44345 -26.4531,-10.34997 -30.1484,-19.49658 -1.4583,-3.60947 -1.4775,-9.82824 -0.041,-13.34943 2.4576,-6.02524 9.6099,-12.48816 17.6658,-15.96317 4.8812,-2.10554 12.3343,-4.0672 18.0662,-4.75509 3.9342,-0.47212 14.909,-0.27796 20.3065,0.35929 3.6552,0.43155 3.7157,-0.74075 0.1855,-3.59263 -6.1207,-4.94462 -8.8077,-9.74361 -8.7733,-15.66899 0.064,-11.02301 12.2103,-20.20338 29.8256,-22.54301 6.5983,-0.87637 12.1843,-0.56441 18.8707,1.05387 9.3615,2.26574 9.9456,1.92495 5.7788,-3.37158 -4.0226,-5.11306 -5.3484,-9.35105 -4.8321,-15.44612 0.4434,-5.2353 1.8727,-8.81756 5.1958,-13.02216 8.7356,-11.05289 24.9344,-18.53641 46.2059,-21.34616 18.6758,-2.46687 40.50373,0.36388 58.01063,7.52311 17.6916,7.23475 30.2314,19.30109 34.5526,33.24812 1.6344,5.27481 1.3948,14.53391 -0.5167,19.96971 -2.3874,6.78941 -2.3878,6.79199 -1.1954,7.08419 0.5931,0.14534 3.4812,-0.22017 6.4179,-0.81225 25.2497,-5.09075 54.4075,-0.34571 73.6214,11.98092 11.2876,7.24153 17.7893,15.05696 21.0237,25.27161 1.6362,5.16735 1.1507,14.90856 -0.9993,20.05197 -3.2637,7.80762 -10.3449,15.99611 -18.2662,21.12235 l -3.7599,2.43321 -141.6462,-0.0305 c -121.16723,-0.0261 -142.21043,-0.12738 -145.54833,-0.70068 z"
         id="path23752-7" /></g><rect
       style="display:none;opacity:0;fill:#000000;fill-opacity:1;stroke-width:3.851;paint-order:fill markers stroke"
       id="rect26904"
       width="1918.7656"
       height="1078.766"
       x="0"
       y="0"
       ry="0.16048685" /></g></svg>
